<?xml version="1.0" encoding="UTF-8"?>
<svg width="231" height="37" fill="none" version="1.1" viewBox="0 0 231 37" xmlns="http://www.w3.org/2000/svg">
 <g clip-path="url(#clip0)">
  <path d="m227.3 29.083 0.161 1.131h3.703v-1.2926-1.6157-1.6157-18.581h-4.186v6.786c-1.609-1.6157-5.473-1.6157-7.404-0.4847-1.127 0.6463-2.093 1.7773-2.737 3.0699s-0.966 2.9083-0.966 4.8471c0 2.4236 0.483 4.2009 1.449 6.3013 1.771 3.0699 7.083 4.0393 9.98 1.4542zm-7.404-8.2402c0-0.9694 0.161-1.9388 0.321-2.5851 0.322-1.131 0.966-2.1005 2.093-2.5852 1.932-0.6463 3.864 0.1616 4.507 0.9694v9.2097c-0.965 1.6157-3.863 1.4541-5.312 0.1615-0.483-0.4847-0.966-1.131-1.127-1.9388-0.321-0.8079-0.482-1.9389-0.482-3.2315zm-127.01-8.0786h-1.9317v-1.6157c0-0.9694-0.322-2.9083-0.8049-3.5546l-3.3805 3.2315v1.9388h-4.0244c0-3.393 0.483-3.7161 2.4147-4.0393l1.2878-3.2314c-5.4732-0.16158-7.8878 1.9389-7.8878 7.2707h-3.2196l1.2878 3.5546h1.9318v13.895h4.1853v-13.895h4.0244v8.4018c0 1.131 0.161 2.262 0.6439 3.0698 0.4829 0.8079 1.1268 1.4542 1.9317 1.9389s1.7708 0.6463 3.0586 0.6463 2.4146-0.1616 3.3804-0.6463l-1.1268-3.2315c-0.4829 0.3232-0.9658 0.3232-1.4488 0.3232-0.4829 0-0.9658 0-1.2878-0.1616-0.3219-0.1616-0.4829-0.3231-0.6439-0.6463-0.1609-0.3231-0.161-0.6463-0.161-1.131v-8.5633h3.2196l-1.4488-3.5546zm37.346 11.31v0.4847c0 0.1616 0 0.3231-0.161 0.4847-0.161 0.4847-0.322 0.8079-0.644 1.131s-0.644 0.6463-1.127 0.8079c-0.483 0.1615-0.965 0.3231-1.609 0.3231-0.483 0-0.966-0.1616-1.288-0.3231-0.322-0.1616-0.644-0.4848-0.966-0.8079-0.161-0.3231-0.322-0.8079-0.322-1.4541 0-0.6463 0.161-1.2926 0.483-1.6158 0.322-0.4847 0.805-0.8078 1.449-0.9694s1.288-0.4847 1.931-0.4847c0.805-0.1616 1.449-0.1616 2.254-0.1616v2.5852zm4.346-4.3625c0-0.9694-0.161-1.9388-0.321-2.7467-0.161-0.8079-0.644-1.6157-1.127-2.4236-0.483-0.6463-1.288-1.2926-2.254-1.6157-0.966-0.3232-2.093-0.6463-3.541-0.6463-1.449 0-3.059 0.1616-4.347 0.4847l-1.449 3.8777c1.288-0.8078 3.542-1.2925 4.991-1.2925 0.805 0 1.448 0.1615 1.931 0.3231s0.805 0.4847 1.127 0.8079c0.322 0.3231 0.483 0.6463 0.483 0.9694 0.161 0.3232 0.161 0.6463 0.161 0.9694v0.3232c-2.093 0-4.024 0.1616-5.634 0.8078-1.61 0.4848-2.737 1.2926-3.541 2.2621-0.805 0.9694-1.288 2.262-1.288 3.7161 0 0.6463 0.161 1.2926 0.322 1.9389s0.644 1.131 1.127 1.6157c0.482 0.4847 0.965 0.9694 1.77 1.131 0.644 0.3231 1.449 0.4847 2.415 0.4847 0.805 0 1.449-0.1616 2.093-0.3231 0.643-0.1616 1.287-0.4847 1.77-0.8079 0.483-0.3231 0.966-0.8078 1.288-1.2926h0.161l0.322 1.9389h4.024c-0.161-0.4847-0.161-1.131-0.161-1.9389v-2.262-6.3013h-0.322zm-17.868-6.9476h4.508l-6.118 17.45h-4.185l-3.058-10.018-2.898 10.018h-4.185l-3.8638-10.987-2.2537-6.4629h4.5073l3.7022 12.603 3.381-12.603h3.541l3.381 12.603 3.541-12.603zm68.093-5.9782-6.117 9.8558-6.117-9.8558h-4.669v23.428h4.186v-16.48l6.6 9.8559 6.6-9.8559v16.48h4.185v-23.428h-4.668zm-48.132 23.428h4.346v-9.048-0.6463c0-0.1616 0-0.4847 0.161-0.6463 0.161-0.6463 0.322-1.2926 0.805-1.7773 0.322-0.4847 0.805-0.8079 1.288-1.131 0.322-0.1616 0.644-0.3232 1.127-0.3232 0.161-0.1615 0.161-0.4847 0.322-0.6462 0.322-0.6463 0.644-1.131 0.966-1.6158 0.322-0.8078 0.805-1.131 0.805-1.9388-0.161 0-0.322 0-0.483-0.1616h-0.483c-0.644 0-1.288 0.1616-1.932 0.4847-0.644 0.3232-1.127 0.6463-1.771 1.2926-0.483 0.4847-0.965 1.2926-1.126 2.1004h-0.161l-0.161-3.393h-3.864c0 0.8079 0.161 1.6157 0.161 2.5852v3.0698 11.795zm17.386-3.393c0.804 0 1.609 0 2.253-0.1616s1.449-0.3231 1.932-0.4847c0.644-0.1616 1.127-0.4847 1.61-0.6463v3.393c-0.483 0.3232-1.127 0.6463-1.771 0.8079s-1.449 0.4847-2.254 0.6463c-0.805 0.1615-1.61 0.1615-2.575 0.1615-0.644 0-1.449 0-2.254-0.1615-0.805-0.1616-1.449-0.3232-2.254-0.8079-0.644-0.3231-1.287-0.9694-1.931-1.6157s-0.966-1.4542-1.288-2.5852c-0.322-0.9694-0.483-2.262-0.483-3.8777 0-1.2926 0.161-2.5851 0.483-3.7161 0.322-1.1311 0.805-2.1005 1.288-2.9083 0.644-0.8079 1.448-1.4542 2.414-1.9389s2.254-0.6463 3.703-0.6463c1.127 0 2.092 0.1616 2.897 0.4847 0.805 0.3232 1.61 0.8079 2.254 1.2926 0.805 0.4847 1.288 1.131 1.771 1.7773 0.322 0.6463 0.644 1.4541 0.965 2.262 0.161 0.8079 0.322 1.7773 0.322 2.5851v1.1311 1.131h-11.268c0 0.8078 0.161 1.4541 0.483 2.1004 0.322 0.4847 0.644 0.9694 0.966 1.131 0.483 0.3231 0.805 0.4847 1.449 0.4847 0.322 0.1616 0.805 0.1616 1.288 0.1616zm-0.805-11.148c-0.644 0-1.288 0.1616-1.771 0.4847-0.483 0.3232-0.805 0.8079-1.127 1.4542s-0.483 1.4541-0.483 2.5851h7.083c0-0.4847-0.161-1.131-0.322-1.6157s-0.322-0.9694-0.644-1.4541c-0.322-0.4848-0.644-0.8079-1.127-0.9695-0.644-0.3231-1.126-0.4847-1.609-0.4847zm-85.8-3.5546c1.7708 0 3.2196 0.3232 4.5074 1.131 1.2878 0.6463 2.0926 1.7773 2.7365 3.0699s0.9659 3.0699 0.9659 5.0087c0 1.9389-0.322 3.7162-0.9659 5.0088-0.6439 1.2925-1.6097 2.4236-2.7365 3.0698-1.2878 0.6463-2.7366 0.9695-4.5074 1.131-1.7707 0-3.2195-0.3231-4.5073-1.131-1.2878-0.6462-2.0927-1.7773-2.7366-3.0698-0.6439-1.2926-0.9658-3.0699-0.9658-5.0088 0-1.9388 0.3219-3.7161 0.9658-5.0087s1.6098-2.4236 2.7366-3.0699c1.2878-0.6463 2.7366-0.9694 4.5073-1.131zm0 14.865c0.6439 0 1.1269 0 1.6098-0.1616s0.9658-0.4847 1.2878-0.8079c0.322-0.3231 0.6439-0.9694 0.8049-1.7773 0.161-0.8078 0.3219-1.6157 0.3219-2.9083 0-1.131-0.1609-2.1004-0.3219-2.9083-0.161-0.8078-0.4829-1.2925-0.8049-1.7773-0.322-0.4847-0.8049-0.6462-1.2878-0.8078s-1.1268-0.1616-1.6098-0.1616c-0.6439 0-1.1268 0-1.6097 0.1616s-0.9659 0.4847-1.2878 0.8078c-0.322 0.3232-0.6439 0.9695-0.8049 1.7773-0.161 0.8079-0.322 1.6158-0.322 2.9083 0 1.131 0.161 2.1005 0.322 2.9083 0.161 0.8079 0.4829 1.2926 0.8049 1.7773 0.3219 0.3232 0.8049 0.6463 1.2878 0.8079s0.9658 0.1616 1.6097 0.1616zm-21.41-13.734c0-0.4847 0.161-0.9694 0.4829-1.2925 0.161-0.3232 0.4829-0.6463 0.9659-0.9695 0.4829-0.1615 0.9658-0.3231 1.4487-0.4847 0.483-0.1616 1.1269-0.1616 1.6098-0.1616 0.8049 0 1.6098 0.1616 2.2537 0.3232 0.8048 0.1616 1.4487 0.4847 1.9317 0.6463 0.6439 0.3231 1.1268 0.4847 1.6097 0.8078v-4.0393c-0.9658-0.48472-1.9317-0.80786-2.8975-1.131-1.1269-0.32314-2.0927-0.48471-3.3805-0.48471-1.1269 0-2.0927 0.16157-3.2195 0.32314-0.8049 0.48472-1.7708 0.80786-2.4147 1.2926-0.8049 0.48471-1.4488 1.2926-1.7707 2.1005-0.6439 0.9694-0.8049 1.9388-0.8049 3.2314 0 0.9694 0.161 1.9389 0.4829 2.5852 0.322 0.6462 0.8049 1.2925 1.2878 1.7773 0.644 0.4847 1.1269 0.8078 1.9318 1.131 0.6439 0.3231 1.4487 0.6462 2.2536 0.8078s1.4488 0.4847 2.2537 0.6463c0.6439 0.1616 1.2878 0.4847 1.9317 0.8079 0.6439 0.3231 0.9658 0.6463 1.2878 1.131 0.3219 0.4847 0.4829 0.9694 0.4829 1.6157 0 0.4847-0.161 0.9694-0.4829 1.2926-0.322 0.3231-0.6439 0.6463-1.1268 0.8078-0.483 0.1616-0.9659 0.3232-1.6098 0.4847-0.6439 0.1616-1.1268 0.1616-1.7707 0.1616-0.9659 0-1.7708-0.1616-2.5756-0.3231-0.8049-0.1616-1.6098-0.4847-2.2537-0.8079-0.6439-0.3231-1.2878-0.6463-1.7707-1.131v4.2009c0.6439 0.3231 1.2878 0.8078 2.0926 0.9694 0.8049 0.3232 1.6098 0.4847 2.5757 0.6463 0.9658 0.1616 1.9317 0.3231 3.0585 0.3231s2.0927-0.1615 3.0585-0.4847c0.9659-0.3231 1.7708-0.8078 2.5756-1.2926 0.8049-0.6462 1.2878-1.2925 1.7708-2.1004 0.4829-0.8078 0.6439-1.6157 0.6439-2.5851 0-1.131-0.161-2.262-0.4829-3.0699-0.322-0.8079-0.8049-1.4542-1.2879-2.1004-0.4829-0.4848-1.1268-0.9695-1.9317-1.4542-0.6439-0.3231-1.4487-0.6463-2.2536-0.9694-0.8049-0.1616-1.4488-0.4847-2.2537-0.6463-0.6439-0.1616-1.2878-0.3232-1.9317-0.6463-0.6439-0.1616-0.9658-0.4847-1.2878-0.8079-0.3219-0.1615-0.4829-0.6463-0.4829-1.131zm147.94-7.7554c-0.482 0-0.965 0.16157-1.448 0.32314-0.322 0.16157-0.644 0.48472-0.966 0.96943-0.161 0.32315-0.322 0.80786-0.322 1.2926 0 0.48471 0.161 0.96943 0.322 1.2926 0.161 0.32315 0.483 0.6463 0.966 0.9694 0.322 0.1616 0.805 0.3232 1.448 0.3232 0.483 0 0.966-0.1616 1.449-0.3232 0.322-0.1615 0.644-0.48468 0.966-0.9694 0.161-0.32314 0.322-0.80786 0.322-1.2926 0-0.48472-0.161-0.96943-0.322-1.2926-0.161-0.32314-0.483-0.64629-0.966-0.96943-0.483-0.16157-0.966-0.32314-1.449-0.32314zm2.093 24.721v-16.642c-2.414 0.8078-4.185 2.262-4.185 4.3624v12.28h4.185zm2.415 0h4.185v-10.341-0.8079c0-0.3231 0.161-0.4847 0.161-0.6463 0.161-0.4847 0.322-0.8078 0.644-1.2925 0.322-0.3232 0.644-0.6463 1.127-0.9695 0.483-0.3231 0.966-0.3231 1.61-0.3231 0.804 0 1.448 0.1616 1.931 0.6463 0.483 0.3231 0.805 0.9694 1.127 1.6157 0.161 0.6463 0.322 1.4541 0.322 2.262v10.018h4.185v-10.502c0-1.4542-0.161-2.5852-0.482-3.5546-0.322-0.9694-0.644-1.7773-1.288-2.4236s-1.288-0.9694-1.932-1.2926c-0.805-0.3231-1.449-0.4847-2.254-0.3231-0.805 0-1.448 0.1616-1.931 0.3231-0.644 0.1616-1.127 0.4848-1.61 0.6463-0.483 0.3232-0.805 0.6463-1.288 0.9695-0.322 0.3231-0.644 0.6463-0.805 1.131h-0.161l-0.161-2.5852c-0.966 0-2.253 0.1616-3.702 0.4847 0 0.6463 0 1.2926 0.161 1.9389v2.7467 12.28h0.161z" fill="#0D0C0C"/>
  <g clip-rule="evenodd" fill-rule="evenodd">
   <path d="m16.74 2.262c2.4147-1.2926 10.785 2.5852 10.624 12.118 0 2.7468-1.1268 6.4629-1.9317 8.4018-0.161 0.3231-0.3219 0.6463-0.4829 0.9694 0 0.1616-0.161 0.3232-0.161 0.3232-0.4829 1.131-0.3219 1.7772 1.2878 0.9694 0.161 0 0.322-0.1616 0.322-0.1616 0.6439-0.3231 1.1268-0.6463 1.6097-0.9694 0.8049-0.6463 3.3805-2.5852 4.6683-4.6856 3.3805-5.1703 2.7366-9.8559-1.4488-14.057-2.0926-1.9389-4.6683-3.5546-7.4048-4.3625-4.8293-0.80786-6.761 0.16157-7.083 1.4542z" fill="url(#paint0_linear)"/>
   <path d="m13.038 18.742c4.3464 1.7773 10.302 2.9083 14.488 4.6856 0.483 0.1616 0.8049 0.4847 1.2878 0.6463 2.2537 1.2926 3.7025 3.0699 3.3805 5.4935 0 0.4847-0.1609 0.9694-0.3219 1.4541 1.2878-1.2926 2.2536-2.7467 3.0585-4.3624 0 0 0-0.1616 0.161-0.1616 0.9658-2.5852-0.161-5.1703-2.4146-7.5939-1.1269-1.2926-2.5756-2.4236-4.0244-3.7161-3.7025-3.0699-8.2098-6.1398-10.785-9.2096-0.8049-0.96943-1.6097-2.5852-1.1268-3.8777 0.4829-1.4541 2.4146-2.4236 7.2439-1.4541-2.8976-0.64629-5.9561-0.96943-8.8537-0.32314l-1.9317 0.48472c-2.0927 0.64628-4.0244 1.6157-5.7951 2.9083-1.9317 1.6157-2.5756 3.7162-2.4146 5.655 0.32195 4.0393 3.8634 7.917 7.5658 9.3711h0.4829zm-4.5073 1.4542c4.1854 3.2314 8.0488 3.7161 11.107 6.1397 3.0586 2.262 4.1854 6.4629 1.7708 10.018-0.483 0.3231-1.1269 0.6463-1.9317 0.6463h-1.7708c-7.7268-0.3232-14.81-5.3319-17.063-13.249-1.9317-6.6245 0-13.41 4.3463-18.096-2.8976 6.6245 1.1268 12.603 3.5415 14.541z" fill="url(#paint1_linear)"/>
   <path d="m8.5308 20.196c-2.5756-1.9388-6.6-8.0786-3.5415-14.541-3.8634 4.8472-3.8634 11.148-0.80488 15.996 2.2537 3.7161 5.6342 4.3624 7.0829 7.2707 1.4488 3.2314-0.6439 6.6245 3.7025 7.5939 0.9658 0.1616 2.0927 0.3231 3.0585 0.3231 3.2195 0 4.1854-0.4847 4.6683-3.7161 0.4829-2.7467-0.8049-5.3319-3.0585-6.9476-3.0586-2.262-6.922-2.7467-11.107-5.9782z" fill="url(#paint2_linear)"/>
  </g>
  <path d="m25.434 22.782c0.6439 0.3231 1.4488 0.4847 2.0927 0.8078 0.161 0.1616 0.3219 0.1616 0.4829 0.3232 0.8049-0.6463 3.3805-2.5852 4.6683-4.6856l-0.161-0.1616c-1.1268-1.2926-2.5756-2.4236-4.0244-3.7161-0.4829-0.3232-0.8048-0.6463-1.2878-0.9695 0.161 2.7468-0.9658 6.4629-1.7707 8.4018z" fill="url(#paint3_linear)"/>
  <path d="m4.9893 9.2098c0.32195 4.0393 3.8634 7.917 7.5658 9.3711l0.322 0.1616c1.7707 0.6463 3.8634 1.2926 5.9561 1.9389-7.8878-4.2009-6.761-15.511-2.4147-18.419 0.483-1.4541 2.4147-2.4236 7.2439-1.4541-2.5756-0.80786-5.6341-1.131-8.5317-0.48472l-1.9317 0.48472c-2.0927 0.64628-4.0244 1.6157-5.7951 2.9083-1.7707 1.6157-2.4146 3.5546-2.4146 5.4934z" fill="url(#paint4_linear)"/>
 </g>
 <defs>
  <linearGradient id="paint0_linear" x1="15.716" x2="32.557" y1="2.9463" y2="19.725" gradientUnits="userSpaceOnUse">
   <stop stop-color="#652300" offset=".2"/>
   <stop stop-color="#D1050C" offset="1"/>
  </linearGradient>
  <linearGradient id="paint1_linear" x1="22.933" x2="9.2984" y1="35.879" y2="2.2567" gradientUnits="userSpaceOnUse">
   <stop stop-color="#E84C0A" offset=".05"/>
   <stop stop-color="#FBBA00" offset=".95"/>
  </linearGradient>
  <linearGradient id="paint2_linear" x1="6.2165" x2="15.54" y1="26.022" y2="19.518" gradientUnits="userSpaceOnUse">
   <stop stop-color="#D1050C" offset="0"/>
   <stop stop-color="#EF7C00" offset=".85"/>
  </linearGradient>
  <linearGradient id="paint3_linear" x1="25.567" x2="32.754" y1="19.025" y2="19.275" gradientUnits="userSpaceOnUse">
   <stop stop-color="#D1050C" stop-opacity="0" offset=".25"/>
   <stop stop-color="#D1050C" stop-opacity=".5" offset="1"/>
  </linearGradient>
  <linearGradient id="paint4_linear" x1="23.644" x2="9.2283" y1=".59506" y2="16.546" gradientUnits="userSpaceOnUse">
   <stop stop-color="#D1050C" stop-opacity=".5" offset=".08"/>
   <stop stop-color="#D1050C" stop-opacity="0" offset=".8"/>
  </linearGradient>
  <clipPath id="clip0">
   <rect width="231" height="37" fill="#fff"/>
  </clipPath>
 </defs>
</svg>
